<?xml version="1.0" encoding="UTF-8" standalone="no"?>
<!-- Created with Inkscape (http://www.inkscape.org/) -->

<svg
   width="210mm"
   height="297mm"
   viewBox="0 0 210 297"
   version="1.1"
   id="svg1"
   inkscape:version="1.3 (0e150ed6c4, 2023-07-21)"
   sodipodi:docname="logo.svg"
   xmlns:inkscape="http://www.inkscape.org/namespaces/inkscape"
   xmlns:sodipodi="http://sodipodi.sourceforge.net/DTD/sodipodi-0.dtd"
   xmlns="http://www.w3.org/2000/svg"
   xmlns:svg="http://www.w3.org/2000/svg">
  <sodipodi:namedview
     id="namedview1"
     pagecolor="#ffffff"
     bordercolor="#000000"
     borderopacity="0.25"
     inkscape:showpageshadow="2"
     inkscape:pageopacity="0.0"
     inkscape:pagecheckerboard="0"
     inkscape:deskcolor="#d1d1d1"
     inkscape:document-units="mm"
     inkscape:zoom="1.4627806"
     inkscape:cx="264.22281"
     inkscape:cy="511.6967"
     inkscape:window-width="1920"
     inkscape:window-height="1017"
     inkscape:window-x="1912"
     inkscape:window-y="140"
     inkscape:window-maximized="1"
     inkscape:current-layer="layer1" />
  <defs
     id="defs1" />
  <g
     inkscape:label="Capa 1"
     inkscape:groupmode="layer"
     id="layer1">
    <path
       style="fill:#ffffff;fill-opacity:1;stroke:#000000;stroke-width:0.264583"
       d="M 129.28296,156.27771 88.043011,100.2578 46.803062,156.27771 Z"
       id="path3"
       sodipodi:nodetypes="ccc" />
    <circle
       style="fill:none;fill-opacity:1;stroke:#000000;stroke-width:0.23241"
       id="path4"
       cx="88.043007"
       cy="135.38145"
       r="20.671829" />
    <text
       xml:space="preserve"
       style="font-style:normal;font-variant:normal;font-weight:normal;font-stretch:normal;font-size:8.81944px;font-family:Verdana;-inkscape-font-specification:Verdana;letter-spacing:0.79375px;fill:#969696;fill-opacity:1;stroke:#000000;stroke-width:0.264583"
       x="22.247869"
       y="75.244827"
       id="text6"><tspan
         sodipodi:role="line"
         id="tspan6"
         style="stroke-width:0.264583;fill:#969696;fill-opacity:1"
         x="22.247869"
         y="75.244827" /></text>
    <text
       xml:space="preserve"
       style="font-style:normal;font-variant:normal;font-weight:normal;font-stretch:normal;font-size:8.81944px;font-family:Verdana;-inkscape-font-specification:Verdana;letter-spacing:0.79375px;fill:#969696;fill-opacity:1;stroke:none;stroke-width:0.265;stroke-dasharray:none"
       x="25.503653"
       y="69.99939"
       id="text7"><tspan
         sodipodi:role="line"
         id="tspan7"
         style="stroke-width:0.265;stroke:none;stroke-dasharray:none"
         x="25.503653"
         y="69.99939" /></text>
    <text
       xml:space="preserve"
       style="font-style:normal;font-variant:normal;font-weight:normal;font-stretch:normal;font-size:8.81944px;font-family:Verdana;-inkscape-font-specification:Verdana;letter-spacing:0.79375px;fill:#000000;fill-opacity:1;stroke:none;stroke-width:0.264999;stroke-dasharray:none"
       x="28.940315"
       y="73.978691"
       id="text8"><tspan
         sodipodi:role="line"
         id="tspan8"
         style="fill:#000000;fill-opacity:1;stroke-width:0.265"
         x="28.940315"
         y="73.978691" /></text>
    <text
       xml:space="preserve"
       style="font-style:normal;font-variant:normal;font-weight:normal;font-stretch:normal;font-size:8.81944px;font-family:Verdana;-inkscape-font-specification:Verdana;letter-spacing:0.79375px;fill:#000000;fill-opacity:1;stroke:none;stroke-width:0.264999;stroke-dasharray:none"
       x="28.940315"
       y="83.74604"
       id="text9"><tspan
         sodipodi:role="line"
         id="tspan9"
         style="stroke-width:0.265"
         x="28.940315"
         y="83.74604" /></text>
    <text
       xml:space="preserve"
       style="font-style:normal;font-variant:normal;font-weight:normal;font-stretch:normal;font-size:8.81944px;font-family:Verdana;-inkscape-font-specification:Verdana;letter-spacing:0.79375px;fill:#398cc7;fill-opacity:1;stroke:none;stroke-width:0.264999;stroke-dasharray:none"
       x="33.823994"
       y="83.384285"
       id="text10"><tspan
         sodipodi:role="line"
         id="tspan10"
         style="stroke-width:0.265;fill:#398cc7;fill-opacity:1"
         x="33.823994"
         y="83.384285" /></text>
    <path
       style="font-size:8.81944px;font-family:'Bauhaus 93';-inkscape-font-specification:'Bauhaus 93, ';letter-spacing:0.79375px;fill:#3d8cc3;stroke-width:0.265"
       d="m 74.910194,135.80014 0.377997,1.53013 -0.56439,0.13942 0.367657,1.48834 -1.69736,0.41931 -0.874753,-3.54106 q -0.246834,-0.99918 0.206613,-1.80318 0.456597,-0.80923 1.39307,-1.04057 1.032634,-0.25509 1.946607,0.46395 l -1.141202,1.35983 q -0.197607,-0.29719 -0.494447,-0.22385 -0.392979,0.0971 -0.258718,0.64057 l 0.174539,0.70653 z m 4.28508,-2.03315 0.702962,4.23551 -1.58885,0.2637 -0.702962,-4.23551 z m -1.103937,-1.75933 q 0.322867,-0.0536 0.594596,0.13704 0.275233,0.18571 0.326743,0.4958 0.05499,0.33136 -0.134907,0.58114 -0.185657,0.24908 -0.534016,0.3069 -0.348353,0.0578 -0.608765,-0.11723 -0.256131,-0.17579 -0.311163,-0.50711 -0.05147,-0.31013 0.144813,-0.57406 0.199833,-0.26889 0.522699,-0.32248 z m 7.346034,5.42183 -1.605179,0.13181 -0.198409,-2.41636 q -0.03031,-0.3691 -0.335012,-0.34411 -0.300439,0.0247 -0.270133,0.39379 l 0.198415,2.41634 -1.60518,0.13181 -0.195946,-2.38631 q -0.06872,-0.83692 0.438064,-1.45321 0.506434,-0.62058 1.309028,-0.68649 0.918471,-0.0754 1.526754,0.54437 0.476127,0.48373 0.552249,1.41079 z m 4.520325,-5.87154 1.610115,0.0389 -0.08654,3.57754 q -0.02385,0.98587 -0.555456,1.59331 -0.305698,0.35014 -0.771443,0.54995 -0.461445,0.19991 -0.943618,0.18825 -0.960041,-0.0232 -1.603097,-0.68493 -0.643071,-0.66169 -0.620361,-1.60021 0.02197,-0.90838 0.692386,-1.55553 0.670415,-0.64716 1.565876,-0.6255 0.142059,0.003 0.429886,0.0362 l -0.04291,1.77371 q -0.19432,-0.15974 -0.392323,-0.16456 -0.249696,-0.006 -0.434987,0.1747 -0.180883,0.17655 -0.18713,0.43485 -0.006,0.2497 0.174704,0.43499 0.180839,0.181 0.439153,0.18724 0.61994,0.015 0.640663,-0.84173 z m 7.53881,4.73698 -2.420655,-0.31995 q -0.03124,-0.19091 -0.01092,-0.34461 0.02821,-0.21345 0.13214,-0.40822 l 0.811161,0.10721 q -0.02276,-0.48516 -0.470984,-0.54446 -0.298847,-0.0395 -0.520556,0.19183 -0.22114,0.22706 -0.273615,0.62409 -0.05474,0.41412 0.09072,0.69397 0.149721,0.28042 0.444281,0.31938 0.239074,0.0316 0.492675,-0.17814 l 0.764892,1.21312 q -0.702139,0.41542 -1.47914,0.31272 -0.947771,-0.12527 -1.508344,-0.8466 -0.560579,-0.72132 -0.436437,-1.66055 0.123584,-0.93497 0.857709,-1.49384 0.738406,-0.55833 1.686177,-0.43305 0.926424,0.12245 1.470483,0.83725 0.548897,0.71109 0.427016,1.63324 -0.01238,0.0939 -0.05658,0.29659 z m 4.420114,-1.54666 -0.37185,1.68193 q -0.14336,-0.12896 -0.27812,-0.15847 -0.42889,-0.0948 -0.57391,0.56113 l -0.43972,1.98888 -1.572604,-0.34767 0.506645,-2.29164 q 0.200799,-0.90824 0.815959,-1.33676 0.61609,-0.43273 1.44445,-0.24959 0.18503,0.0409 0.46912,0.15222 z"
       id="text11"
       aria-label="Finder" />
    <path
       style="font-size:8.81944px;font-family:'Bauhaus 93';-inkscape-font-specification:'Bauhaus 93, ';letter-spacing:0.79375px;fill:#3d8cc3;stroke-width:0.265"
       d="m 56.546551,166.33939 -2.872593,3.05043 -1.27284,-1.19864 4.029896,-4.27938 1.658455,1.56177 q 1.091007,1.02741 1.242152,2.10435 0.175622,1.28337 -0.780925,2.29913 -0.915214,0.97187 -2.120881,0.9959 -1.205668,0.024 -2.193217,-0.90597 -0.115997,-0.10923 -0.367534,-0.36977 l 1.183875,-1.25716 0.203779,0.1919 q 1.112953,1.04806 1.989786,0.11696 0.823695,-0.87467 -0.270447,-1.90503 z m 4.031216,6.69798 -0.968646,1.35616 q -0.181217,-0.0872 -0.314384,-0.18221 -0.788464,-0.56316 -0.943665,-1.45724 -0.155205,-0.89408 0.402957,-1.67555 0.543142,-0.76041 1.450234,-0.91162 0.9106,-0.14869 1.671028,0.39445 0.848036,0.60572 0.979712,1.45123 0.137679,0.84453 -0.475547,1.70308 l -1.223947,1.71358 -1.310601,-0.9361 1.156368,-1.61898 q 0.197734,-0.27684 0.178707,-0.53916 -0.01552,-0.2598 -0.243302,-0.42251 -0.206752,-0.14766 -0.46506,-0.10466 -0.258313,0.043 -0.405985,0.24979 -0.155185,0.21728 -0.118632,0.45506 0.03655,0.2378 0.246804,0.38797 0.17171,0.12265 0.383967,0.13665 z m 5.409873,5.14902 -1.411616,-0.77543 1.167311,-2.12499 q 0.178308,-0.3246 -0.08968,-0.4718 -0.264206,-0.14513 -0.442515,0.17946 l -1.16731,2.12498 -1.411616,-0.77545 1.152796,-2.09854 q 0.404305,-0.736 1.16696,-0.97053 0.764726,-0.23831 1.470543,0.14932 0.807716,0.4437 0.973238,1.29619 0.130333,0.66611 -0.317515,1.48138 z m 4.77117,-2.57182 -1.716382,3.93544 -1.476286,-0.64386 1.716384,-3.93545 z m 0.0319,-2.07674 q 0.299996,0.13082 0.424132,0.43866 0.129805,0.30562 0.0041,0.59376 -0.13428,0.3079 -0.429564,0.41401 -0.291336,0.10784 -0.615017,-0.0333 -0.323679,-0.14116 -0.446808,-0.42977 -0.11918,-0.28688 0.0151,-0.59477 0.125672,-0.28815 0.434018,-0.40267 0.31401,-0.11675 0.614008,0.0141 z m 4.459173,6.21742 -2.318549,-0.7657 q 0.005,-0.19339 0.05352,-0.34061 0.06752,-0.20445 0.205946,-0.37642 l 0.77694,0.25657 q 0.06812,-0.4809 -0.361248,-0.62269 -0.286244,-0.0945 -0.547189,0.0914 -0.259597,0.18184 -0.385186,0.56213 -0.130991,0.39664 -0.04029,0.6987 0.09481,0.30342 0.376959,0.39662 0.228987,0.0757 0.517252,-0.0831 l 0.525283,1.33446 q -0.767285,0.27723 -1.51151,0.0314 -0.907792,-0.29981 -1.324041,-1.113 -0.416249,-0.8132 -0.119156,-1.71281 0.295742,-0.89553 1.121207,-1.30773 0.829553,-0.41084 1.737345,-0.11101 0.887346,0.29304 1.288588,1.09675 0.406683,0.80096 0.114992,1.68421 -0.02971,0.0899 -0.110887,0.28086 z m 3.72611,-3.24429 -1.321297,5.72776 -1.569366,-0.36202 1.321298,-5.72777 z m 3.890019,0.67276 2.130462,0.15314 q 1.894216,0.13618 1.787191,1.6265 -0.0531,0.73881 -0.736815,1.18188 0.911367,0.47561 0.836099,1.52367 -0.05773,0.80323 -0.646018,1.24021 -0.286954,0.20822 -0.602695,0.27621 -0.315738,0.068 -0.839763,0.0303 l -0.330709,-0.0243 0.108314,-1.50765 0.2964,0.021 q 0.262027,0.0186 0.374026,-0.0379 0.112318,-0.061 0.124349,-0.22854 0.02033,-0.28349 -0.417762,-0.31494 l -0.335007,-0.0245 0.112261,-1.5635 q 0.481023,0.0353 0.504827,-0.29618 0.02188,-0.30497 -0.411924,-0.33614 l -0.322115,-0.0237 -0.308159,4.29102 -1.743905,-0.12506 z m 7.525792,1.74148 0.04284,1.72201 q -0.170253,-0.0905 -0.30801,-0.0872 -0.439118,0.0105 -0.422408,0.68251 l 0.05066,2.03628 -1.610085,0.0401 -0.05836,-2.34624 q -0.02313,-0.9299 0.471154,-1.49357 0.49418,-0.56799 1.342272,-0.58909 0.189429,-0.005 0.491963,0.035 z m 2.872306,-0.32588 q 0.906348,-0.10959 1.631002,0.46645 0.72841,0.57126 0.838522,1.48188 0.111663,0.92345 -0.468144,1.65289 -0.575534,0.72894 -1.503259,0.84111 -0.927723,0.11219 -1.664684,-0.45805 -0.73748,-0.57449 -0.848625,-1.49366 -0.113214,-0.93627 0.468147,-1.65289 0.580842,-0.7209 1.547041,-0.83773 z m 0.148004,1.58273 q -0.256511,0.031 -0.413327,0.24084 -0.157331,0.20554 -0.124764,0.47487 0.03205,0.26508 0.234355,0.43148 0.206581,0.16587 0.45882,0.13537 0.256512,-0.031 0.413328,-0.24084 0.161088,-0.21034 0.129037,-0.4754 -0.03257,-0.26934 -0.234357,-0.43145 -0.202304,-0.1664 -0.463093,-0.13488 z m 5.201817,-4.10703 1.564793,-0.38133 0.84727,3.47685 q 0.23349,0.95811 -0.12197,1.68295 -0.20406,0.41761 -0.60178,0.73172 -0.393555,0.31308 -0.862145,0.42728 -0.933013,0.22736 -1.726095,-0.24422 -0.793081,-0.47161 -1.015342,-1.38371 -0.215132,-0.8828 0.263804,-1.6821 0.478947,-0.79929 1.349204,-1.01138 0.138068,-0.0336 0.424515,-0.0769 l 0.420065,1.72378 q -0.229164,-0.10381 -0.421638,-0.0567 -0.242666,0.0591 -0.374547,0.28185 -0.128724,0.21754 -0.0675,0.46859 0.05908,0.24265 0.28187,0.37453 0.221706,0.12771 0.472747,0.0665 0.602488,-0.14682 0.399587,-0.97943 z m 6.406283,-0.43984 -0.33867,2.89993 1.42289,-0.52263 0.58203,1.58459 -3.88467,1.42685 0.32762,-2.90505 -1.27737,0.46919 -0.57906,-1.57651 z m 5.86848,-0.16273 -2.18487,1.09007 q -0.13277,-0.14069 -0.20199,-0.27943 -0.0961,-0.19267 -0.11904,-0.41223 l 0.73214,-0.36529 q -0.29047,-0.38926 -0.69507,-0.1874 -0.26974,0.13458 -0.32394,0.45038 -0.0561,0.31192 0.12268,0.67029 0.18649,0.37379 0.46367,0.52425 0.28105,0.14854 0.54693,0.0163 0.21579,-0.10765 0.3085,-0.42344 l 1.31294,0.57698 q -0.34921,0.73731 -1.05053,1.08722 -0.85547,0.42679 -1.72377,0.14292 -0.86833,-0.28384 -1.29128,-1.13158 -0.42103,-0.84392 -0.12562,-1.718 0.29926,-0.87599 1.15472,-1.30281 0.83619,-0.41719 1.68719,-0.12949 0.8529,0.28192 1.26817,1.11426 0.0423,0.0849 0.11916,0.27742 z m -0.2532,-2.51118 1.33038,-0.90776 1.30341,1.91022 q 0.1529,0.2241 0.25982,0.28148 0.1045,0.0539 0.22545,-0.0286 0.2241,-0.15292 -0.0478,-0.55133 l -1.30339,-1.91022 1.33039,-0.90776 1.3034,1.91021 q 0.1529,0.2241 0.25983,0.28149 0.10804,0.0514 0.229,-0.0311 0.22054,-0.15047 -0.0513,-0.54888 l -1.3034,-1.91021 1.33039,-0.90777 1.49028,2.18412 q 0.40777,0.59761 0.2922,1.29163 -0.11785,0.69047 -0.69068,1.08123 -0.59049,0.40291 -1.39985,0.22529 -0.17953,0.85238 -0.70601,1.21161 -0.6652,0.45388 -1.39724,0.24438 -0.57631,-0.16461 -1.06659,-0.88316 z m 7.80752,-5.93249 1.11582,1.27819 q -0.25628,0.22373 -0.26864,0.40601 -0.0126,0.17618 0.20847,0.48111 0.73413,1.01117 0.4288,1.95797 -0.16505,0.4985 -0.79116,1.04509 l -0.1687,0.14727 -1.12148,-1.28467 0.0552,-0.048 q 0.29197,-0.25487 0.31048,-0.48253 0.0187,-0.23374 -0.22787,-0.55567 -0.40733,-0.51901 -0.51804,-0.77679 -0.10747,-0.2606 -0.0758,-0.63691 0.0542,-0.65861 0.68643,-1.2109 z m 0.57298,-2.91779 4.2791,4.03019 -1.10423,1.17244 -4.2791,-4.03019 z m 2.84544,-0.70975 0.59764,1.64543 2.7906,1.01922 -1.22236,1.29784 -2.73168,-1.18853 -0.58274,-1.5545 z m 1.65105,-2.1281 3.37984,2.6477 -0.99322,1.26786 -3.37985,-2.64771 z m -2.00251,-0.55124 q 0.20182,-0.25764 0.53095,-0.30069 0.3284,-0.0491 0.57587,0.14479 0.26441,0.20714 0.29316,0.51958 0.0313,0.30907 -0.18636,0.58705 -0.21776,0.27798 -0.52802,0.32487 -0.3076,0.0435 -0.57201,-0.16365 -0.24746,-0.19386 -0.28107,-0.52106 -0.0344,-0.33325 0.16748,-0.59089 z"
       id="text12"
       aria-label="Daniel Brodzewski" />
  </g>
</svg>
